<mxfile host="app.diagrams.net" agent="Mozilla/5.0 (X11; Ubuntu; Linux x86_64; rv:132.0) Gecko/20100101 Firefox/132.0" version="26.0.9" pages="4">
  <diagram name="lezione3esercizio5" id="sgSI3vNpfRAOQs9xrQIf">
    <mxGraphModel dx="1126" dy="1529" grid="1" gridSize="10" guides="1" tooltips="1" connect="1" arrows="1" fold="1" page="1" pageScale="1" pageWidth="850" pageHeight="1100" math="0" shadow="0">
      <root>
        <mxCell id="0" />
        <mxCell id="1" parent="0" />
        <mxCell id="mw4MY1gdxsXPG8gL_zma-4" value="" style="edgeStyle=orthogonalEdgeStyle;rounded=0;orthogonalLoop=1;jettySize=auto;html=1;" edge="1" parent="1" source="mw4MY1gdxsXPG8gL_zma-2" target="mw4MY1gdxsXPG8gL_zma-3">
          <mxGeometry relative="1" as="geometry" />
        </mxCell>
        <mxCell id="mw4MY1gdxsXPG8gL_zma-2" value="start" style="ellipse;whiteSpace=wrap;html=1;" vertex="1" parent="1">
          <mxGeometry x="360" y="-770" width="120" height="80" as="geometry" />
        </mxCell>
        <mxCell id="mw4MY1gdxsXPG8gL_zma-20" value="" style="edgeStyle=orthogonalEdgeStyle;rounded=0;orthogonalLoop=1;jettySize=auto;html=1;" edge="1" parent="1" source="mw4MY1gdxsXPG8gL_zma-3" target="mw4MY1gdxsXPG8gL_zma-19">
          <mxGeometry relative="1" as="geometry" />
        </mxCell>
        <mxCell id="mw4MY1gdxsXPG8gL_zma-3" value="read n" style="shape=parallelogram;perimeter=parallelogramPerimeter;whiteSpace=wrap;html=1;fixedSize=1;" vertex="1" parent="1">
          <mxGeometry x="360" y="-660" width="120" height="60" as="geometry" />
        </mxCell>
        <mxCell id="mw4MY1gdxsXPG8gL_zma-13" value="" style="edgeStyle=orthogonalEdgeStyle;rounded=0;orthogonalLoop=1;jettySize=auto;html=1;" edge="1" parent="1" source="mw4MY1gdxsXPG8gL_zma-5" target="mw4MY1gdxsXPG8gL_zma-12">
          <mxGeometry relative="1" as="geometry" />
        </mxCell>
        <mxCell id="mw4MY1gdxsXPG8gL_zma-16" value="false" style="edgeLabel;html=1;align=center;verticalAlign=middle;resizable=0;points=[];" vertex="1" connectable="0" parent="mw4MY1gdxsXPG8gL_zma-13">
          <mxGeometry x="-0.0857" relative="1" as="geometry">
            <mxPoint as="offset" />
          </mxGeometry>
        </mxCell>
        <mxCell id="mw4MY1gdxsXPG8gL_zma-23" value="" style="edgeStyle=orthogonalEdgeStyle;rounded=0;orthogonalLoop=1;jettySize=auto;html=1;entryX=0.5;entryY=0;entryDx=0;entryDy=0;" edge="1" parent="1" source="mw4MY1gdxsXPG8gL_zma-5" target="mw4MY1gdxsXPG8gL_zma-22">
          <mxGeometry relative="1" as="geometry" />
        </mxCell>
        <mxCell id="mw4MY1gdxsXPG8gL_zma-44" value="true" style="edgeLabel;html=1;align=center;verticalAlign=middle;resizable=0;points=[];" vertex="1" connectable="0" parent="mw4MY1gdxsXPG8gL_zma-23">
          <mxGeometry x="-0.2375" relative="1" as="geometry">
            <mxPoint as="offset" />
          </mxGeometry>
        </mxCell>
        <mxCell id="mw4MY1gdxsXPG8gL_zma-5" value="&lt;div&gt;n &amp;gt; 0&lt;/div&gt;&lt;div&gt;and&lt;/div&gt;&lt;div&gt;n%1==0&lt;br&gt;&lt;/div&gt;" style="rhombus;whiteSpace=wrap;html=1;" vertex="1" parent="1">
          <mxGeometry x="380" y="-400" width="80" height="80" as="geometry" />
        </mxCell>
        <mxCell id="mw4MY1gdxsXPG8gL_zma-48" value="" style="edgeStyle=orthogonalEdgeStyle;rounded=0;orthogonalLoop=1;jettySize=auto;html=1;" edge="1" parent="1" source="mw4MY1gdxsXPG8gL_zma-12" target="mw4MY1gdxsXPG8gL_zma-47">
          <mxGeometry relative="1" as="geometry" />
        </mxCell>
        <mxCell id="mw4MY1gdxsXPG8gL_zma-12" value="write &quot;Errore&quot;" style="shape=parallelogram;perimeter=parallelogramPerimeter;whiteSpace=wrap;html=1;fixedSize=1;" vertex="1" parent="1">
          <mxGeometry x="200" y="-390" width="120" height="60" as="geometry" />
        </mxCell>
        <mxCell id="mw4MY1gdxsXPG8gL_zma-29" value="" style="edgeStyle=orthogonalEdgeStyle;rounded=0;orthogonalLoop=1;jettySize=auto;html=1;" edge="1" parent="1" source="mw4MY1gdxsXPG8gL_zma-19" target="mw4MY1gdxsXPG8gL_zma-28">
          <mxGeometry relative="1" as="geometry" />
        </mxCell>
        <mxCell id="mw4MY1gdxsXPG8gL_zma-19" value="cont=1" style="whiteSpace=wrap;html=1;" vertex="1" parent="1">
          <mxGeometry x="360" y="-570" width="120" height="60" as="geometry" />
        </mxCell>
        <mxCell id="mw4MY1gdxsXPG8gL_zma-25" value="" style="edgeStyle=orthogonalEdgeStyle;rounded=0;orthogonalLoop=1;jettySize=auto;html=1;" edge="1" parent="1" source="mw4MY1gdxsXPG8gL_zma-22" target="mw4MY1gdxsXPG8gL_zma-24">
          <mxGeometry relative="1" as="geometry" />
        </mxCell>
        <mxCell id="mw4MY1gdxsXPG8gL_zma-45" value="true" style="edgeLabel;html=1;align=center;verticalAlign=middle;resizable=0;points=[];" vertex="1" connectable="0" parent="mw4MY1gdxsXPG8gL_zma-25">
          <mxGeometry x="-0.68" y="1" relative="1" as="geometry">
            <mxPoint as="offset" />
          </mxGeometry>
        </mxCell>
        <mxCell id="mw4MY1gdxsXPG8gL_zma-41" value="" style="edgeStyle=orthogonalEdgeStyle;rounded=0;orthogonalLoop=1;jettySize=auto;html=1;" edge="1" parent="1" source="mw4MY1gdxsXPG8gL_zma-22" target="mw4MY1gdxsXPG8gL_zma-40">
          <mxGeometry relative="1" as="geometry" />
        </mxCell>
        <mxCell id="mw4MY1gdxsXPG8gL_zma-46" value="false" style="edgeLabel;html=1;align=center;verticalAlign=middle;resizable=0;points=[];" vertex="1" connectable="0" parent="mw4MY1gdxsXPG8gL_zma-41">
          <mxGeometry x="-0.1143" y="-2" relative="1" as="geometry">
            <mxPoint as="offset" />
          </mxGeometry>
        </mxCell>
        <mxCell id="mw4MY1gdxsXPG8gL_zma-22" value="cont &amp;lt;= n" style="rhombus;whiteSpace=wrap;html=1;" vertex="1" parent="1">
          <mxGeometry x="540" y="-320" width="80" height="80" as="geometry" />
        </mxCell>
        <mxCell id="mw4MY1gdxsXPG8gL_zma-32" value="" style="edgeStyle=orthogonalEdgeStyle;rounded=0;orthogonalLoop=1;jettySize=auto;html=1;" edge="1" parent="1" source="mw4MY1gdxsXPG8gL_zma-24" target="mw4MY1gdxsXPG8gL_zma-31">
          <mxGeometry relative="1" as="geometry" />
        </mxCell>
        <mxCell id="mw4MY1gdxsXPG8gL_zma-24" value="ris=ris+(cont*cont)" style="whiteSpace=wrap;html=1;" vertex="1" parent="1">
          <mxGeometry x="520" y="-210" width="120" height="60" as="geometry" />
        </mxCell>
        <mxCell id="mw4MY1gdxsXPG8gL_zma-30" value="" style="edgeStyle=orthogonalEdgeStyle;rounded=0;orthogonalLoop=1;jettySize=auto;html=1;" edge="1" parent="1" source="mw4MY1gdxsXPG8gL_zma-28" target="mw4MY1gdxsXPG8gL_zma-5">
          <mxGeometry relative="1" as="geometry" />
        </mxCell>
        <mxCell id="mw4MY1gdxsXPG8gL_zma-28" value="ris = 0" style="rounded=0;whiteSpace=wrap;html=1;" vertex="1" parent="1">
          <mxGeometry x="360" y="-480" width="120" height="60" as="geometry" />
        </mxCell>
        <mxCell id="mw4MY1gdxsXPG8gL_zma-34" value="" style="edgeStyle=orthogonalEdgeStyle;rounded=0;orthogonalLoop=1;jettySize=auto;html=1;" edge="1" parent="1" source="mw4MY1gdxsXPG8gL_zma-31" target="mw4MY1gdxsXPG8gL_zma-33">
          <mxGeometry relative="1" as="geometry" />
        </mxCell>
        <mxCell id="mw4MY1gdxsXPG8gL_zma-31" value="cont += 1" style="whiteSpace=wrap;html=1;" vertex="1" parent="1">
          <mxGeometry x="520" y="-120" width="120" height="60" as="geometry" />
        </mxCell>
        <mxCell id="mw4MY1gdxsXPG8gL_zma-36" value="" style="edgeStyle=orthogonalEdgeStyle;rounded=0;orthogonalLoop=1;jettySize=auto;html=1;" edge="1" parent="1" source="mw4MY1gdxsXPG8gL_zma-33" target="mw4MY1gdxsXPG8gL_zma-35">
          <mxGeometry relative="1" as="geometry" />
        </mxCell>
        <mxCell id="mw4MY1gdxsXPG8gL_zma-33" value="" style="shape=waypoint;sketch=0;size=6;pointerEvents=1;points=[];fillColor=default;resizable=0;rotatable=0;perimeter=centerPerimeter;snapToPoint=1;" vertex="1" parent="1">
          <mxGeometry x="570" y="-10" width="20" height="20" as="geometry" />
        </mxCell>
        <mxCell id="mw4MY1gdxsXPG8gL_zma-38" value="" style="edgeStyle=orthogonalEdgeStyle;rounded=0;orthogonalLoop=1;jettySize=auto;html=1;" edge="1" parent="1" source="mw4MY1gdxsXPG8gL_zma-35" target="mw4MY1gdxsXPG8gL_zma-37">
          <mxGeometry relative="1" as="geometry" />
        </mxCell>
        <mxCell id="mw4MY1gdxsXPG8gL_zma-35" value="" style="shape=waypoint;sketch=0;size=6;pointerEvents=1;points=[];fillColor=default;resizable=0;rotatable=0;perimeter=centerPerimeter;snapToPoint=1;" vertex="1" parent="1">
          <mxGeometry x="470" y="-10" width="20" height="20" as="geometry" />
        </mxCell>
        <mxCell id="mw4MY1gdxsXPG8gL_zma-39" value="" style="edgeStyle=orthogonalEdgeStyle;rounded=0;orthogonalLoop=1;jettySize=auto;html=1;" edge="1" parent="1" source="mw4MY1gdxsXPG8gL_zma-37" target="mw4MY1gdxsXPG8gL_zma-22">
          <mxGeometry relative="1" as="geometry" />
        </mxCell>
        <mxCell id="mw4MY1gdxsXPG8gL_zma-37" value="" style="shape=waypoint;sketch=0;size=6;pointerEvents=1;points=[];fillColor=default;resizable=0;rotatable=0;perimeter=centerPerimeter;snapToPoint=1;" vertex="1" parent="1">
          <mxGeometry x="470" y="-290" width="20" height="20" as="geometry" />
        </mxCell>
        <mxCell id="mw4MY1gdxsXPG8gL_zma-43" value="" style="edgeStyle=orthogonalEdgeStyle;rounded=0;orthogonalLoop=1;jettySize=auto;html=1;" edge="1" parent="1" source="mw4MY1gdxsXPG8gL_zma-40" target="mw4MY1gdxsXPG8gL_zma-42">
          <mxGeometry relative="1" as="geometry" />
        </mxCell>
        <mxCell id="mw4MY1gdxsXPG8gL_zma-40" value="write ris" style="shape=parallelogram;perimeter=parallelogramPerimeter;whiteSpace=wrap;html=1;fixedSize=1;" vertex="1" parent="1">
          <mxGeometry x="680" y="-310" width="120" height="60" as="geometry" />
        </mxCell>
        <mxCell id="mw4MY1gdxsXPG8gL_zma-42" value="end" style="ellipse;whiteSpace=wrap;html=1;" vertex="1" parent="1">
          <mxGeometry x="700" y="-180" width="80" height="80" as="geometry" />
        </mxCell>
        <mxCell id="mw4MY1gdxsXPG8gL_zma-50" value="" style="edgeStyle=orthogonalEdgeStyle;rounded=0;orthogonalLoop=1;jettySize=auto;html=1;" edge="1" parent="1" source="mw4MY1gdxsXPG8gL_zma-47" target="mw4MY1gdxsXPG8gL_zma-42">
          <mxGeometry relative="1" as="geometry">
            <mxPoint x="740" y="-100" as="targetPoint" />
          </mxGeometry>
        </mxCell>
        <mxCell id="mw4MY1gdxsXPG8gL_zma-47" value="" style="shape=waypoint;sketch=0;size=6;pointerEvents=1;points=[];fillColor=default;resizable=0;rotatable=0;perimeter=centerPerimeter;snapToPoint=1;" vertex="1" parent="1">
          <mxGeometry x="250" y="30" width="20" height="20" as="geometry" />
        </mxCell>
      </root>
    </mxGraphModel>
  </diagram>
  <diagram id="2eVN8S8YK88xv0mitT1E" name="lezione3esercizio6">
    <mxGraphModel dx="4583" dy="2271" grid="1" gridSize="10" guides="1" tooltips="1" connect="1" arrows="1" fold="1" page="1" pageScale="1" pageWidth="850" pageHeight="1100" math="0" shadow="0">
      <root>
        <mxCell id="0" />
        <mxCell id="1" parent="0" />
        <mxCell id="A9Gm3I3LBpf3RbzOhqfh-3" value="" style="edgeStyle=orthogonalEdgeStyle;rounded=0;orthogonalLoop=1;jettySize=auto;html=1;" edge="1" parent="1" source="A9Gm3I3LBpf3RbzOhqfh-1" target="A9Gm3I3LBpf3RbzOhqfh-2">
          <mxGeometry relative="1" as="geometry" />
        </mxCell>
        <mxCell id="A9Gm3I3LBpf3RbzOhqfh-1" value="start" style="ellipse;whiteSpace=wrap;html=1;" vertex="1" parent="1">
          <mxGeometry x="360" y="20" width="120" height="80" as="geometry" />
        </mxCell>
        <mxCell id="A9Gm3I3LBpf3RbzOhqfh-9" value="" style="edgeStyle=orthogonalEdgeStyle;rounded=0;orthogonalLoop=1;jettySize=auto;html=1;" edge="1" parent="1" source="A9Gm3I3LBpf3RbzOhqfh-2" target="A9Gm3I3LBpf3RbzOhqfh-8">
          <mxGeometry relative="1" as="geometry" />
        </mxCell>
        <mxCell id="A9Gm3I3LBpf3RbzOhqfh-2" value="read x" style="shape=parallelogram;perimeter=parallelogramPerimeter;whiteSpace=wrap;html=1;fixedSize=1;" vertex="1" parent="1">
          <mxGeometry x="360" y="140" width="120" height="60" as="geometry" />
        </mxCell>
        <mxCell id="A9Gm3I3LBpf3RbzOhqfh-7" value="" style="edgeStyle=orthogonalEdgeStyle;rounded=0;orthogonalLoop=1;jettySize=auto;html=1;entryX=0.5;entryY=0;entryDx=0;entryDy=0;" edge="1" parent="1">
          <mxGeometry relative="1" as="geometry">
            <mxPoint x="460" y="539" as="sourcePoint" />
            <mxPoint x="575" y="559" as="targetPoint" />
          </mxGeometry>
        </mxCell>
        <mxCell id="A9Gm3I3LBpf3RbzOhqfh-67" value="true" style="edgeLabel;html=1;align=center;verticalAlign=middle;resizable=0;points=[];" vertex="1" connectable="0" parent="A9Gm3I3LBpf3RbzOhqfh-7">
          <mxGeometry x="-0.2037" y="-4" relative="1" as="geometry">
            <mxPoint as="offset" />
          </mxGeometry>
        </mxCell>
        <mxCell id="A9Gm3I3LBpf3RbzOhqfh-69" value="true" style="edgeLabel;html=1;align=center;verticalAlign=middle;resizable=0;points=[];" vertex="1" connectable="0" parent="A9Gm3I3LBpf3RbzOhqfh-7">
          <mxGeometry x="-0.191" y="-2" relative="1" as="geometry">
            <mxPoint as="offset" />
          </mxGeometry>
        </mxCell>
        <mxCell id="A9Gm3I3LBpf3RbzOhqfh-53" value="" style="edgeStyle=orthogonalEdgeStyle;rounded=0;orthogonalLoop=1;jettySize=auto;html=1;" edge="1" parent="1" source="A9Gm3I3LBpf3RbzOhqfh-4" target="A9Gm3I3LBpf3RbzOhqfh-52">
          <mxGeometry relative="1" as="geometry" />
        </mxCell>
        <mxCell id="A9Gm3I3LBpf3RbzOhqfh-68" value="false" style="edgeLabel;html=1;align=center;verticalAlign=middle;resizable=0;points=[];" vertex="1" connectable="0" parent="A9Gm3I3LBpf3RbzOhqfh-53">
          <mxGeometry x="-0.0714" y="-3" relative="1" as="geometry">
            <mxPoint as="offset" />
          </mxGeometry>
        </mxCell>
        <mxCell id="A9Gm3I3LBpf3RbzOhqfh-4" value="&lt;div&gt;x &amp;gt; 0 and &lt;br&gt;&lt;/div&gt;&lt;div&gt;x%1==0&lt;br&gt;&lt;/div&gt;" style="rhombus;whiteSpace=wrap;html=1;" vertex="1" parent="1">
          <mxGeometry x="379" y="499" width="80" height="80" as="geometry" />
        </mxCell>
        <mxCell id="A9Gm3I3LBpf3RbzOhqfh-11" value="" style="edgeStyle=orthogonalEdgeStyle;rounded=0;orthogonalLoop=1;jettySize=auto;html=1;" edge="1" parent="1" source="A9Gm3I3LBpf3RbzOhqfh-6" target="A9Gm3I3LBpf3RbzOhqfh-10">
          <mxGeometry relative="1" as="geometry" />
        </mxCell>
        <mxCell id="A9Gm3I3LBpf3RbzOhqfh-65" value="true" style="edgeLabel;html=1;align=center;verticalAlign=middle;resizable=0;points=[];" vertex="1" connectable="0" parent="A9Gm3I3LBpf3RbzOhqfh-11">
          <mxGeometry x="0.0375" y="-2" relative="1" as="geometry">
            <mxPoint x="-1" y="-1" as="offset" />
          </mxGeometry>
        </mxCell>
        <mxCell id="A9Gm3I3LBpf3RbzOhqfh-55" value="" style="edgeStyle=orthogonalEdgeStyle;rounded=0;orthogonalLoop=1;jettySize=auto;html=1;" edge="1" parent="1" source="A9Gm3I3LBpf3RbzOhqfh-6" target="A9Gm3I3LBpf3RbzOhqfh-54">
          <mxGeometry relative="1" as="geometry" />
        </mxCell>
        <mxCell id="A9Gm3I3LBpf3RbzOhqfh-66" value="false" style="edgeLabel;html=1;align=center;verticalAlign=middle;resizable=0;points=[];" vertex="1" connectable="0" parent="A9Gm3I3LBpf3RbzOhqfh-55">
          <mxGeometry x="0.0112" y="1" relative="1" as="geometry">
            <mxPoint as="offset" />
          </mxGeometry>
        </mxCell>
        <mxCell id="A9Gm3I3LBpf3RbzOhqfh-6" value="cont &amp;lt;= 10" style="rhombus;whiteSpace=wrap;html=1;" vertex="1" parent="1">
          <mxGeometry x="535" y="559" width="80" height="80" as="geometry" />
        </mxCell>
        <mxCell id="A9Gm3I3LBpf3RbzOhqfh-24" value="" style="edgeStyle=orthogonalEdgeStyle;rounded=0;orthogonalLoop=1;jettySize=auto;html=1;" edge="1" parent="1" source="A9Gm3I3LBpf3RbzOhqfh-8" target="A9Gm3I3LBpf3RbzOhqfh-23">
          <mxGeometry relative="1" as="geometry" />
        </mxCell>
        <mxCell id="A9Gm3I3LBpf3RbzOhqfh-8" value="cont = 1" style="whiteSpace=wrap;html=1;" vertex="1" parent="1">
          <mxGeometry x="360" y="230" width="120" height="60" as="geometry" />
        </mxCell>
        <mxCell id="A9Gm3I3LBpf3RbzOhqfh-13" value="" style="edgeStyle=orthogonalEdgeStyle;rounded=0;orthogonalLoop=1;jettySize=auto;html=1;" edge="1" parent="1" source="A9Gm3I3LBpf3RbzOhqfh-10" target="A9Gm3I3LBpf3RbzOhqfh-12">
          <mxGeometry relative="1" as="geometry" />
        </mxCell>
        <mxCell id="A9Gm3I3LBpf3RbzOhqfh-10" value="read n" style="shape=parallelogram;perimeter=parallelogramPerimeter;whiteSpace=wrap;html=1;fixedSize=1;" vertex="1" parent="1">
          <mxGeometry x="515" y="679" width="120" height="60" as="geometry" />
        </mxCell>
        <mxCell id="A9Gm3I3LBpf3RbzOhqfh-17" value="" style="edgeStyle=orthogonalEdgeStyle;rounded=0;orthogonalLoop=1;jettySize=auto;html=1;entryX=0.5;entryY=0;entryDx=0;entryDy=0;" edge="1" parent="1">
          <mxGeometry relative="1" as="geometry">
            <mxPoint x="622" y="839" as="sourcePoint" />
            <mxPoint x="749" y="899" as="targetPoint" />
            <Array as="points">
              <mxPoint x="742" y="839" />
            </Array>
          </mxGeometry>
        </mxCell>
        <mxCell id="A9Gm3I3LBpf3RbzOhqfh-64" value="ture" style="edgeLabel;html=1;align=center;verticalAlign=middle;resizable=0;points=[];" vertex="1" connectable="0" parent="A9Gm3I3LBpf3RbzOhqfh-17">
          <mxGeometry x="-0.3797" y="-1" relative="1" as="geometry">
            <mxPoint as="offset" />
          </mxGeometry>
        </mxCell>
        <mxCell id="A9Gm3I3LBpf3RbzOhqfh-27" value="" style="edgeStyle=orthogonalEdgeStyle;rounded=0;orthogonalLoop=1;jettySize=auto;html=1;" edge="1" parent="1" source="A9Gm3I3LBpf3RbzOhqfh-12" target="A9Gm3I3LBpf3RbzOhqfh-26">
          <mxGeometry relative="1" as="geometry">
            <Array as="points">
              <mxPoint x="420" y="839" />
            </Array>
          </mxGeometry>
        </mxCell>
        <mxCell id="A9Gm3I3LBpf3RbzOhqfh-63" value="false" style="edgeLabel;html=1;align=center;verticalAlign=middle;resizable=0;points=[];" vertex="1" connectable="0" parent="A9Gm3I3LBpf3RbzOhqfh-27">
          <mxGeometry x="-0.4714" y="3" relative="1" as="geometry">
            <mxPoint as="offset" />
          </mxGeometry>
        </mxCell>
        <mxCell id="A9Gm3I3LBpf3RbzOhqfh-12" value="n%2==0" style="rhombus;whiteSpace=wrap;html=1;" vertex="1" parent="1">
          <mxGeometry x="535" y="799" width="80" height="80" as="geometry" />
        </mxCell>
        <mxCell id="A9Gm3I3LBpf3RbzOhqfh-19" value="" style="edgeStyle=orthogonalEdgeStyle;rounded=0;orthogonalLoop=1;jettySize=auto;html=1;" edge="1" parent="1" source="A9Gm3I3LBpf3RbzOhqfh-16" target="A9Gm3I3LBpf3RbzOhqfh-18">
          <mxGeometry relative="1" as="geometry">
            <Array as="points">
              <mxPoint x="895" y="939" />
            </Array>
          </mxGeometry>
        </mxCell>
        <mxCell id="A9Gm3I3LBpf3RbzOhqfh-59" value="true" style="edgeLabel;html=1;align=center;verticalAlign=middle;resizable=0;points=[];" vertex="1" connectable="0" parent="A9Gm3I3LBpf3RbzOhqfh-19">
          <mxGeometry x="-0.3072" relative="1" as="geometry">
            <mxPoint y="-1" as="offset" />
          </mxGeometry>
        </mxCell>
        <mxCell id="A9Gm3I3LBpf3RbzOhqfh-34" style="edgeStyle=orthogonalEdgeStyle;rounded=0;orthogonalLoop=1;jettySize=auto;html=1;exitX=0;exitY=0.5;exitDx=0;exitDy=0;" edge="1" parent="1" source="A9Gm3I3LBpf3RbzOhqfh-16">
          <mxGeometry relative="1" as="geometry">
            <mxPoint x="740" y="1099" as="targetPoint" />
            <Array as="points">
              <mxPoint x="600" y="939" />
              <mxPoint x="600" y="1099" />
            </Array>
          </mxGeometry>
        </mxCell>
        <mxCell id="A9Gm3I3LBpf3RbzOhqfh-60" value="false" style="edgeLabel;html=1;align=center;verticalAlign=middle;resizable=0;points=[];" vertex="1" connectable="0" parent="A9Gm3I3LBpf3RbzOhqfh-34">
          <mxGeometry x="-0.7351" y="2" relative="1" as="geometry">
            <mxPoint as="offset" />
          </mxGeometry>
        </mxCell>
        <mxCell id="A9Gm3I3LBpf3RbzOhqfh-16" value="n &amp;gt; x/2" style="rhombus;whiteSpace=wrap;html=1;" vertex="1" parent="1">
          <mxGeometry x="702" y="899" width="80" height="80" as="geometry" />
        </mxCell>
        <mxCell id="A9Gm3I3LBpf3RbzOhqfh-36" style="edgeStyle=orthogonalEdgeStyle;rounded=0;orthogonalLoop=1;jettySize=auto;html=1;exitX=0.5;exitY=1;exitDx=0;exitDy=0;" edge="1" parent="1" source="A9Gm3I3LBpf3RbzOhqfh-18">
          <mxGeometry relative="1" as="geometry">
            <mxPoint x="580" y="1159" as="targetPoint" />
            <Array as="points">
              <mxPoint x="895" y="1099" />
              <mxPoint x="741" y="1099" />
            </Array>
          </mxGeometry>
        </mxCell>
        <mxCell id="A9Gm3I3LBpf3RbzOhqfh-18" value="ris1=ris1 + n" style="whiteSpace=wrap;html=1;" vertex="1" parent="1">
          <mxGeometry x="835" y="979" width="120" height="60" as="geometry" />
        </mxCell>
        <mxCell id="A9Gm3I3LBpf3RbzOhqfh-50" value="" style="edgeStyle=orthogonalEdgeStyle;rounded=0;orthogonalLoop=1;jettySize=auto;html=1;" edge="1" parent="1" source="A9Gm3I3LBpf3RbzOhqfh-23" target="A9Gm3I3LBpf3RbzOhqfh-49">
          <mxGeometry relative="1" as="geometry" />
        </mxCell>
        <mxCell id="A9Gm3I3LBpf3RbzOhqfh-23" value="ris1= 0" style="rounded=0;whiteSpace=wrap;html=1;" vertex="1" parent="1">
          <mxGeometry x="360" y="320" width="120" height="60" as="geometry" />
        </mxCell>
        <mxCell id="A9Gm3I3LBpf3RbzOhqfh-31" value="" style="edgeStyle=orthogonalEdgeStyle;rounded=0;orthogonalLoop=1;jettySize=auto;html=1;" edge="1" parent="1" source="A9Gm3I3LBpf3RbzOhqfh-26" target="A9Gm3I3LBpf3RbzOhqfh-30">
          <mxGeometry relative="1" as="geometry">
            <Array as="points">
              <mxPoint x="260" y="939" />
            </Array>
          </mxGeometry>
        </mxCell>
        <mxCell id="A9Gm3I3LBpf3RbzOhqfh-62" value="true" style="edgeLabel;html=1;align=center;verticalAlign=middle;resizable=0;points=[];" vertex="1" connectable="0" parent="A9Gm3I3LBpf3RbzOhqfh-31">
          <mxGeometry x="-0.3906" y="3" relative="1" as="geometry">
            <mxPoint as="offset" />
          </mxGeometry>
        </mxCell>
        <mxCell id="A9Gm3I3LBpf3RbzOhqfh-33" style="edgeStyle=orthogonalEdgeStyle;rounded=0;orthogonalLoop=1;jettySize=auto;html=1;exitX=1;exitY=0.5;exitDx=0;exitDy=0;" edge="1" parent="1" source="A9Gm3I3LBpf3RbzOhqfh-26">
          <mxGeometry relative="1" as="geometry">
            <mxPoint x="420" y="1099" as="targetPoint" />
            <Array as="points">
              <mxPoint x="560" y="939" />
              <mxPoint x="560" y="1099" />
            </Array>
          </mxGeometry>
        </mxCell>
        <mxCell id="A9Gm3I3LBpf3RbzOhqfh-61" value="false" style="edgeLabel;html=1;align=center;verticalAlign=middle;resizable=0;points=[];" vertex="1" connectable="0" parent="A9Gm3I3LBpf3RbzOhqfh-33">
          <mxGeometry x="-0.7312" y="-3" relative="1" as="geometry">
            <mxPoint as="offset" />
          </mxGeometry>
        </mxCell>
        <mxCell id="A9Gm3I3LBpf3RbzOhqfh-26" value="n &amp;lt; x" style="rhombus;whiteSpace=wrap;html=1;" vertex="1" parent="1">
          <mxGeometry x="380" y="899" width="80" height="80" as="geometry" />
        </mxCell>
        <mxCell id="A9Gm3I3LBpf3RbzOhqfh-35" style="edgeStyle=orthogonalEdgeStyle;rounded=0;orthogonalLoop=1;jettySize=auto;html=1;exitX=0.5;exitY=1;exitDx=0;exitDy=0;" edge="1" parent="1" source="A9Gm3I3LBpf3RbzOhqfh-30">
          <mxGeometry relative="1" as="geometry">
            <mxPoint x="580" y="1179" as="targetPoint" />
            <Array as="points">
              <mxPoint x="260" y="1097" />
              <mxPoint x="421" y="1097" />
              <mxPoint x="421" y="1159" />
              <mxPoint x="580" y="1159" />
            </Array>
          </mxGeometry>
        </mxCell>
        <mxCell id="A9Gm3I3LBpf3RbzOhqfh-30" value="ris2=ris2 + n" style="whiteSpace=wrap;html=1;" vertex="1" parent="1">
          <mxGeometry x="200" y="979" width="120" height="60" as="geometry" />
        </mxCell>
        <mxCell id="A9Gm3I3LBpf3RbzOhqfh-39" value="" style="edgeStyle=orthogonalEdgeStyle;rounded=0;orthogonalLoop=1;jettySize=auto;html=1;" edge="1" parent="1" source="A9Gm3I3LBpf3RbzOhqfh-37">
          <mxGeometry relative="1" as="geometry">
            <mxPoint x="581" y="1341" as="targetPoint" />
          </mxGeometry>
        </mxCell>
        <mxCell id="A9Gm3I3LBpf3RbzOhqfh-37" value="cont += 1" style="rounded=0;whiteSpace=wrap;html=1;" vertex="1" parent="1">
          <mxGeometry x="521" y="1179" width="120" height="60" as="geometry" />
        </mxCell>
        <mxCell id="A9Gm3I3LBpf3RbzOhqfh-41" value="" style="edgeStyle=orthogonalEdgeStyle;rounded=0;orthogonalLoop=1;jettySize=auto;html=1;" edge="1" parent="1" target="A9Gm3I3LBpf3RbzOhqfh-40">
          <mxGeometry relative="1" as="geometry">
            <mxPoint x="581" y="1341" as="sourcePoint" />
          </mxGeometry>
        </mxCell>
        <mxCell id="A9Gm3I3LBpf3RbzOhqfh-38" value="" style="shape=waypoint;sketch=0;size=6;pointerEvents=1;points=[];fillColor=default;resizable=0;rotatable=0;perimeter=centerPerimeter;snapToPoint=1;rounded=0;" vertex="1" parent="1">
          <mxGeometry x="571" y="1232" width="20" height="20" as="geometry" />
        </mxCell>
        <mxCell id="A9Gm3I3LBpf3RbzOhqfh-43" value="" style="edgeStyle=orthogonalEdgeStyle;rounded=0;orthogonalLoop=1;jettySize=auto;html=1;" edge="1" parent="1" source="A9Gm3I3LBpf3RbzOhqfh-40" target="A9Gm3I3LBpf3RbzOhqfh-42">
          <mxGeometry relative="1" as="geometry" />
        </mxCell>
        <mxCell id="A9Gm3I3LBpf3RbzOhqfh-40" value="" style="shape=waypoint;sketch=0;size=6;pointerEvents=1;points=[];fillColor=default;resizable=0;rotatable=0;perimeter=centerPerimeter;snapToPoint=1;rounded=0;" vertex="1" parent="1">
          <mxGeometry x="70" y="1330" width="20" height="20" as="geometry" />
        </mxCell>
        <mxCell id="A9Gm3I3LBpf3RbzOhqfh-45" value="" style="edgeStyle=orthogonalEdgeStyle;rounded=0;orthogonalLoop=1;jettySize=auto;html=1;" edge="1" parent="1" source="A9Gm3I3LBpf3RbzOhqfh-42" target="A9Gm3I3LBpf3RbzOhqfh-44">
          <mxGeometry relative="1" as="geometry" />
        </mxCell>
        <mxCell id="A9Gm3I3LBpf3RbzOhqfh-42" value="" style="shape=waypoint;sketch=0;size=6;pointerEvents=1;points=[];fillColor=default;resizable=0;rotatable=0;perimeter=centerPerimeter;snapToPoint=1;rounded=0;" vertex="1" parent="1">
          <mxGeometry x="70" y="589" width="20" height="20" as="geometry" />
        </mxCell>
        <mxCell id="A9Gm3I3LBpf3RbzOhqfh-46" value="" style="edgeStyle=orthogonalEdgeStyle;rounded=0;orthogonalLoop=1;jettySize=auto;html=1;" edge="1" parent="1" source="A9Gm3I3LBpf3RbzOhqfh-44" target="A9Gm3I3LBpf3RbzOhqfh-6">
          <mxGeometry relative="1" as="geometry" />
        </mxCell>
        <mxCell id="A9Gm3I3LBpf3RbzOhqfh-44" value="" style="shape=waypoint;sketch=0;size=6;pointerEvents=1;points=[];fillColor=default;resizable=0;rotatable=0;perimeter=centerPerimeter;snapToPoint=1;rounded=0;" vertex="1" parent="1">
          <mxGeometry x="410" y="588" width="20" height="20" as="geometry" />
        </mxCell>
        <mxCell id="A9Gm3I3LBpf3RbzOhqfh-51" style="edgeStyle=orthogonalEdgeStyle;rounded=0;orthogonalLoop=1;jettySize=auto;html=1;exitX=0.5;exitY=1;exitDx=0;exitDy=0;entryX=0.5;entryY=0;entryDx=0;entryDy=0;" edge="1" parent="1" source="A9Gm3I3LBpf3RbzOhqfh-49" target="A9Gm3I3LBpf3RbzOhqfh-4">
          <mxGeometry relative="1" as="geometry" />
        </mxCell>
        <mxCell id="A9Gm3I3LBpf3RbzOhqfh-49" value="ris2 = 0" style="rounded=0;whiteSpace=wrap;html=1;" vertex="1" parent="1">
          <mxGeometry x="360" y="407" width="120" height="60" as="geometry" />
        </mxCell>
        <mxCell id="A9Gm3I3LBpf3RbzOhqfh-58" style="edgeStyle=orthogonalEdgeStyle;rounded=0;orthogonalLoop=1;jettySize=auto;html=1;exitX=0;exitY=0.5;exitDx=0;exitDy=0;" edge="1" parent="1" target="A9Gm3I3LBpf3RbzOhqfh-56">
          <mxGeometry relative="1" as="geometry">
            <mxPoint x="1004" y="639" as="targetPoint" />
            <mxPoint x="236" y="539" as="sourcePoint" />
            <Array as="points">
              <mxPoint x="66" y="539" />
              <mxPoint x="66" y="1420" />
              <mxPoint x="980" y="1420" />
            </Array>
          </mxGeometry>
        </mxCell>
        <mxCell id="A9Gm3I3LBpf3RbzOhqfh-52" value="write &quot;Errore&quot;" style="shape=parallelogram;perimeter=parallelogramPerimeter;whiteSpace=wrap;html=1;fixedSize=1;" vertex="1" parent="1">
          <mxGeometry x="200" y="509" width="120" height="60" as="geometry" />
        </mxCell>
        <mxCell id="A9Gm3I3LBpf3RbzOhqfh-57" value="" style="edgeStyle=orthogonalEdgeStyle;rounded=0;orthogonalLoop=1;jettySize=auto;html=1;" edge="1" parent="1" source="A9Gm3I3LBpf3RbzOhqfh-54" target="A9Gm3I3LBpf3RbzOhqfh-56">
          <mxGeometry relative="1" as="geometry" />
        </mxCell>
        <mxCell id="A9Gm3I3LBpf3RbzOhqfh-54" value="write ris1, ris2" style="shape=parallelogram;perimeter=parallelogramPerimeter;whiteSpace=wrap;html=1;fixedSize=1;" vertex="1" parent="1">
          <mxGeometry x="694" y="569" width="120" height="60" as="geometry" />
        </mxCell>
        <mxCell id="A9Gm3I3LBpf3RbzOhqfh-56" value="end" style="ellipse;whiteSpace=wrap;html=1;" vertex="1" parent="1">
          <mxGeometry x="938" y="559" width="80" height="80" as="geometry" />
        </mxCell>
      </root>
    </mxGraphModel>
  </diagram>
  <diagram id="bUR8PEZgB1xdltpYhMX3" name="lezione3esercizio7">
    <mxGraphModel dx="1887" dy="935" grid="1" gridSize="10" guides="1" tooltips="1" connect="1" arrows="1" fold="1" page="1" pageScale="1" pageWidth="850" pageHeight="1100" math="0" shadow="0">
      <root>
        <mxCell id="0" />
        <mxCell id="1" parent="0" />
        <mxCell id="vob78rRojdzHArDRnl7_-5" value="" style="edgeStyle=orthogonalEdgeStyle;rounded=0;orthogonalLoop=1;jettySize=auto;html=1;" edge="1" parent="1" source="vob78rRojdzHArDRnl7_-1" target="vob78rRojdzHArDRnl7_-11">
          <mxGeometry relative="1" as="geometry">
            <mxPoint x="425" y="132" as="targetPoint" />
          </mxGeometry>
        </mxCell>
        <mxCell id="vob78rRojdzHArDRnl7_-1" value="start" style="ellipse;whiteSpace=wrap;html=1;" vertex="1" parent="1">
          <mxGeometry x="360" y="20" width="120" height="80" as="geometry" />
        </mxCell>
        <mxCell id="vob78rRojdzHArDRnl7_-46" value="" style="edgeStyle=orthogonalEdgeStyle;rounded=0;orthogonalLoop=1;jettySize=auto;html=1;" edge="1" parent="1" source="vob78rRojdzHArDRnl7_-6" target="vob78rRojdzHArDRnl7_-43">
          <mxGeometry relative="1" as="geometry" />
        </mxCell>
        <mxCell id="vob78rRojdzHArDRnl7_-6" value="read si_no" style="shape=parallelogram;perimeter=parallelogramPerimeter;whiteSpace=wrap;html=1;fixedSize=1;" vertex="1" parent="1">
          <mxGeometry x="360" y="210" width="120" height="60" as="geometry" />
        </mxCell>
        <mxCell id="vob78rRojdzHArDRnl7_-31" value="" style="edgeStyle=orthogonalEdgeStyle;rounded=0;orthogonalLoop=1;jettySize=auto;html=1;" edge="1" parent="1" source="vob78rRojdzHArDRnl7_-8" target="vob78rRojdzHArDRnl7_-10">
          <mxGeometry relative="1" as="geometry">
            <mxPoint x="420" y="518" as="targetPoint" />
            <Array as="points">
              <mxPoint x="420" y="500" />
              <mxPoint x="421" y="500" />
            </Array>
          </mxGeometry>
        </mxCell>
        <mxCell id="vob78rRojdzHArDRnl7_-42" value="true" style="edgeLabel;html=1;align=center;verticalAlign=middle;resizable=0;points=[];" vertex="1" connectable="0" parent="vob78rRojdzHArDRnl7_-31">
          <mxGeometry x="-0.6239" relative="1" as="geometry">
            <mxPoint as="offset" />
          </mxGeometry>
        </mxCell>
        <mxCell id="vob78rRojdzHArDRnl7_-49" value="" style="edgeStyle=orthogonalEdgeStyle;rounded=0;orthogonalLoop=1;jettySize=auto;html=1;" edge="1" parent="1" source="vob78rRojdzHArDRnl7_-8" target="vob78rRojdzHArDRnl7_-48">
          <mxGeometry relative="1" as="geometry" />
        </mxCell>
        <mxCell id="vob78rRojdzHArDRnl7_-51" value="false" style="edgeLabel;html=1;align=center;verticalAlign=middle;resizable=0;points=[];" vertex="1" connectable="0" parent="vob78rRojdzHArDRnl7_-49">
          <mxGeometry x="-0.3146" y="-4" relative="1" as="geometry">
            <mxPoint y="-5" as="offset" />
          </mxGeometry>
        </mxCell>
        <mxCell id="vob78rRojdzHArDRnl7_-8" value="si_no == &quot;si&quot;" style="rhombus;whiteSpace=wrap;html=1;" vertex="1" parent="1">
          <mxGeometry x="380" y="402" width="80" height="80" as="geometry" />
        </mxCell>
        <mxCell id="vob78rRojdzHArDRnl7_-25" value="" style="edgeStyle=orthogonalEdgeStyle;rounded=0;orthogonalLoop=1;jettySize=auto;html=1;" edge="1" parent="1" source="vob78rRojdzHArDRnl7_-10" target="vob78rRojdzHArDRnl7_-24">
          <mxGeometry relative="1" as="geometry" />
        </mxCell>
        <mxCell id="vob78rRojdzHArDRnl7_-10" value="read voto" style="shape=parallelogram;perimeter=parallelogramPerimeter;whiteSpace=wrap;html=1;fixedSize=1;" vertex="1" parent="1">
          <mxGeometry x="361" y="598" width="120" height="60" as="geometry" />
        </mxCell>
        <mxCell id="vob78rRojdzHArDRnl7_-12" value="" style="edgeStyle=orthogonalEdgeStyle;rounded=0;orthogonalLoop=1;jettySize=auto;html=1;" edge="1" parent="1" source="vob78rRojdzHArDRnl7_-11" target="vob78rRojdzHArDRnl7_-6">
          <mxGeometry relative="1" as="geometry" />
        </mxCell>
        <mxCell id="vob78rRojdzHArDRnl7_-11" value="write &quot;Desidera inserire un voto?&quot;" style="shape=parallelogram;perimeter=parallelogramPerimeter;whiteSpace=wrap;html=1;fixedSize=1;" vertex="1" parent="1">
          <mxGeometry x="360" y="130" width="120" height="60" as="geometry" />
        </mxCell>
        <mxCell id="vob78rRojdzHArDRnl7_-23" value="" style="edgeStyle=orthogonalEdgeStyle;rounded=0;orthogonalLoop=1;jettySize=auto;html=1;" edge="1" parent="1" source="vob78rRojdzHArDRnl7_-14" target="vob78rRojdzHArDRnl7_-22">
          <mxGeometry relative="1" as="geometry" />
        </mxCell>
        <mxCell id="vob78rRojdzHArDRnl7_-14" value="sum = sum + voto" style="whiteSpace=wrap;html=1;" vertex="1" parent="1">
          <mxGeometry x="520" y="798" width="120" height="60" as="geometry" />
        </mxCell>
        <mxCell id="vob78rRojdzHArDRnl7_-28" value="" style="edgeStyle=orthogonalEdgeStyle;rounded=0;orthogonalLoop=1;jettySize=auto;html=1;" edge="1" parent="1" source="vob78rRojdzHArDRnl7_-22" target="vob78rRojdzHArDRnl7_-27">
          <mxGeometry relative="1" as="geometry" />
        </mxCell>
        <mxCell id="vob78rRojdzHArDRnl7_-22" value="media = sum / cont" style="whiteSpace=wrap;html=1;" vertex="1" parent="1">
          <mxGeometry x="520" y="886" width="120" height="60" as="geometry" />
        </mxCell>
        <mxCell id="vob78rRojdzHArDRnl7_-26" style="edgeStyle=orthogonalEdgeStyle;rounded=0;orthogonalLoop=1;jettySize=auto;html=1;" edge="1" parent="1" source="vob78rRojdzHArDRnl7_-24" target="vob78rRojdzHArDRnl7_-14">
          <mxGeometry relative="1" as="geometry" />
        </mxCell>
        <mxCell id="vob78rRojdzHArDRnl7_-39" value="true" style="edgeLabel;html=1;align=center;verticalAlign=middle;resizable=0;points=[];" vertex="1" connectable="0" parent="vob78rRojdzHArDRnl7_-26">
          <mxGeometry x="-0.3483" y="-3" relative="1" as="geometry">
            <mxPoint as="offset" />
          </mxGeometry>
        </mxCell>
        <mxCell id="vob78rRojdzHArDRnl7_-29" style="edgeStyle=orthogonalEdgeStyle;rounded=0;orthogonalLoop=1;jettySize=auto;html=1;exitX=0;exitY=0.5;exitDx=0;exitDy=0;entryX=0;entryY=0.5;entryDx=0;entryDy=0;" edge="1" parent="1" source="vob78rRojdzHArDRnl7_-24" target="vob78rRojdzHArDRnl7_-10">
          <mxGeometry relative="1" as="geometry">
            <mxPoint x="271" y="639" as="targetPoint" />
            <Array as="points">
              <mxPoint x="350" y="739" />
              <mxPoint x="350" y="628" />
            </Array>
          </mxGeometry>
        </mxCell>
        <mxCell id="vob78rRojdzHArDRnl7_-40" value="false" style="edgeLabel;html=1;align=center;verticalAlign=middle;resizable=0;points=[];" vertex="1" connectable="0" parent="vob78rRojdzHArDRnl7_-29">
          <mxGeometry x="-0.0307" y="2" relative="1" as="geometry">
            <mxPoint as="offset" />
          </mxGeometry>
        </mxCell>
        <mxCell id="vob78rRojdzHArDRnl7_-24" value="voto &amp;gt; 0" style="rhombus;whiteSpace=wrap;html=1;" vertex="1" parent="1">
          <mxGeometry x="381" y="699" width="80" height="80" as="geometry" />
        </mxCell>
        <mxCell id="vob78rRojdzHArDRnl7_-33" value="" style="edgeStyle=orthogonalEdgeStyle;rounded=0;orthogonalLoop=1;jettySize=auto;html=1;entryX=0.088;entryY=0.513;entryDx=0;entryDy=0;entryPerimeter=0;" edge="1" parent="1" source="vob78rRojdzHArDRnl7_-27" target="vob78rRojdzHArDRnl7_-8">
          <mxGeometry relative="1" as="geometry">
            <mxPoint x="290" y="752" as="targetPoint" />
            <Array as="points">
              <mxPoint x="310" y="1004" />
              <mxPoint x="310" y="443" />
            </Array>
          </mxGeometry>
        </mxCell>
        <mxCell id="vob78rRojdzHArDRnl7_-27" value="cont += 1" style="whiteSpace=wrap;html=1;" vertex="1" parent="1">
          <mxGeometry x="520" y="974" width="120" height="60" as="geometry" />
        </mxCell>
        <mxCell id="vob78rRojdzHArDRnl7_-37" value="" style="edgeStyle=orthogonalEdgeStyle;rounded=0;orthogonalLoop=1;jettySize=auto;html=1;" edge="1" parent="1" source="vob78rRojdzHArDRnl7_-34" target="vob78rRojdzHArDRnl7_-36">
          <mxGeometry relative="1" as="geometry" />
        </mxCell>
        <mxCell id="vob78rRojdzHArDRnl7_-34" value="write media" style="shape=parallelogram;perimeter=parallelogramPerimeter;whiteSpace=wrap;html=1;fixedSize=1;" vertex="1" parent="1">
          <mxGeometry x="671" y="411" width="120" height="60" as="geometry" />
        </mxCell>
        <mxCell id="vob78rRojdzHArDRnl7_-36" value="end" style="ellipse;whiteSpace=wrap;html=1;" vertex="1" parent="1">
          <mxGeometry x="844" y="401" width="80" height="80" as="geometry" />
        </mxCell>
        <mxCell id="vob78rRojdzHArDRnl7_-44" value="" style="edgeStyle=orthogonalEdgeStyle;rounded=0;orthogonalLoop=1;jettySize=auto;html=1;" edge="1" parent="1" source="vob78rRojdzHArDRnl7_-43" target="vob78rRojdzHArDRnl7_-8">
          <mxGeometry relative="1" as="geometry" />
        </mxCell>
        <mxCell id="vob78rRojdzHArDRnl7_-43" value="cont = 1, sum = 0, media = 0" style="rounded=0;whiteSpace=wrap;html=1;" vertex="1" parent="1">
          <mxGeometry x="360" y="310" width="120" height="60" as="geometry" />
        </mxCell>
        <mxCell id="vob78rRojdzHArDRnl7_-53" style="edgeStyle=orthogonalEdgeStyle;rounded=0;orthogonalLoop=1;jettySize=auto;html=1;entryX=1;entryY=0.5;entryDx=0;entryDy=0;" edge="1" parent="1" source="vob78rRojdzHArDRnl7_-48" target="vob78rRojdzHArDRnl7_-6">
          <mxGeometry relative="1" as="geometry">
            <Array as="points">
              <mxPoint x="590" y="240" />
            </Array>
          </mxGeometry>
        </mxCell>
        <mxCell id="vob78rRojdzHArDRnl7_-54" value="false" style="edgeLabel;html=1;align=center;verticalAlign=middle;resizable=0;points=[];" vertex="1" connectable="0" parent="vob78rRojdzHArDRnl7_-53">
          <mxGeometry x="-0.4043" relative="1" as="geometry">
            <mxPoint as="offset" />
          </mxGeometry>
        </mxCell>
        <mxCell id="vob78rRojdzHArDRnl7_-56" style="edgeStyle=orthogonalEdgeStyle;rounded=0;orthogonalLoop=1;jettySize=auto;html=1;exitX=1;exitY=0.5;exitDx=0;exitDy=0;" edge="1" parent="1" source="vob78rRojdzHArDRnl7_-48" target="vob78rRojdzHArDRnl7_-34">
          <mxGeometry relative="1" as="geometry" />
        </mxCell>
        <mxCell id="vob78rRojdzHArDRnl7_-57" value="true" style="edgeLabel;html=1;align=center;verticalAlign=middle;resizable=0;points=[];" vertex="1" connectable="0" parent="vob78rRojdzHArDRnl7_-56">
          <mxGeometry x="-0.2692" y="-1" relative="1" as="geometry">
            <mxPoint y="-1" as="offset" />
          </mxGeometry>
        </mxCell>
        <mxCell id="vob78rRojdzHArDRnl7_-48" value="si_no == &quot;no&quot;" style="rhombus;whiteSpace=wrap;html=1;" vertex="1" parent="1">
          <mxGeometry x="550" y="402" width="80" height="80" as="geometry" />
        </mxCell>
      </root>
    </mxGraphModel>
  </diagram>
  <diagram id="PoqdoMW_K0s3_wN90G7x" name="lezione3esercizio8">
    <mxGraphModel dx="1278" dy="901" grid="1" gridSize="10" guides="1" tooltips="1" connect="1" arrows="1" fold="1" page="1" pageScale="1" pageWidth="850" pageHeight="1100" math="0" shadow="0">
      <root>
        <mxCell id="0" />
        <mxCell id="1" parent="0" />
        <mxCell id="wHuKZuV4ssyGS4s8Llmr-3" value="" style="edgeStyle=orthogonalEdgeStyle;rounded=0;orthogonalLoop=1;jettySize=auto;html=1;" edge="1" parent="1" source="wHuKZuV4ssyGS4s8Llmr-1" target="wHuKZuV4ssyGS4s8Llmr-2">
          <mxGeometry relative="1" as="geometry" />
        </mxCell>
        <mxCell id="wHuKZuV4ssyGS4s8Llmr-1" value="start" style="ellipse;whiteSpace=wrap;html=1;aspect=fixed;" vertex="1" parent="1">
          <mxGeometry x="385" y="50" width="80" height="80" as="geometry" />
        </mxCell>
        <mxCell id="wHuKZuV4ssyGS4s8Llmr-5" value="" style="edgeStyle=orthogonalEdgeStyle;rounded=0;orthogonalLoop=1;jettySize=auto;html=1;" edge="1" parent="1" source="wHuKZuV4ssyGS4s8Llmr-2" target="wHuKZuV4ssyGS4s8Llmr-4">
          <mxGeometry relative="1" as="geometry" />
        </mxCell>
        <mxCell id="wHuKZuV4ssyGS4s8Llmr-2" value="sum = 0" style="whiteSpace=wrap;html=1;" vertex="1" parent="1">
          <mxGeometry x="365" y="160" width="120" height="60" as="geometry" />
        </mxCell>
        <mxCell id="wHuKZuV4ssyGS4s8Llmr-7" value="" style="edgeStyle=orthogonalEdgeStyle;rounded=0;orthogonalLoop=1;jettySize=auto;html=1;" edge="1" parent="1" source="wHuKZuV4ssyGS4s8Llmr-4" target="wHuKZuV4ssyGS4s8Llmr-6">
          <mxGeometry relative="1" as="geometry" />
        </mxCell>
        <mxCell id="wHuKZuV4ssyGS4s8Llmr-4" value="read a, read b" style="shape=parallelogram;perimeter=parallelogramPerimeter;whiteSpace=wrap;html=1;fixedSize=1;" vertex="1" parent="1">
          <mxGeometry x="365" y="278" width="120" height="60" as="geometry" />
        </mxCell>
        <mxCell id="wHuKZuV4ssyGS4s8Llmr-9" value="" style="edgeStyle=orthogonalEdgeStyle;rounded=0;orthogonalLoop=1;jettySize=auto;html=1;" edge="1" parent="1" source="wHuKZuV4ssyGS4s8Llmr-6" target="wHuKZuV4ssyGS4s8Llmr-8">
          <mxGeometry relative="1" as="geometry" />
        </mxCell>
        <mxCell id="wHuKZuV4ssyGS4s8Llmr-28" value="true" style="edgeLabel;html=1;align=center;verticalAlign=middle;resizable=0;points=[];" vertex="1" connectable="0" parent="wHuKZuV4ssyGS4s8Llmr-9">
          <mxGeometry x="0.08" y="-4" relative="1" as="geometry">
            <mxPoint as="offset" />
          </mxGeometry>
        </mxCell>
        <mxCell id="wHuKZuV4ssyGS4s8Llmr-26" value="" style="edgeStyle=orthogonalEdgeStyle;rounded=0;orthogonalLoop=1;jettySize=auto;html=1;" edge="1" parent="1" source="wHuKZuV4ssyGS4s8Llmr-6" target="wHuKZuV4ssyGS4s8Llmr-25">
          <mxGeometry relative="1" as="geometry" />
        </mxCell>
        <mxCell id="wHuKZuV4ssyGS4s8Llmr-31" value="false" style="edgeLabel;html=1;align=center;verticalAlign=middle;resizable=0;points=[];" vertex="1" connectable="0" parent="wHuKZuV4ssyGS4s8Llmr-26">
          <mxGeometry x="-0.0857" y="-1" relative="1" as="geometry">
            <mxPoint as="offset" />
          </mxGeometry>
        </mxCell>
        <mxCell id="wHuKZuV4ssyGS4s8Llmr-6" value="&lt;div&gt;a &amp;lt; b &lt;br&gt;&lt;/div&gt;&lt;div&gt;and a&amp;gt;0 and a%1==0 b&amp;gt;0 &lt;br&gt;&lt;/div&gt;&lt;div&gt;and b%1==0&lt;br&gt;&lt;/div&gt;" style="rhombus;whiteSpace=wrap;html=1;" vertex="1" parent="1">
          <mxGeometry x="345" y="371" width="160" height="110" as="geometry" />
        </mxCell>
        <mxCell id="wHuKZuV4ssyGS4s8Llmr-11" value="" style="edgeStyle=orthogonalEdgeStyle;rounded=0;orthogonalLoop=1;jettySize=auto;html=1;" edge="1" parent="1" source="wHuKZuV4ssyGS4s8Llmr-8" target="wHuKZuV4ssyGS4s8Llmr-10">
          <mxGeometry relative="1" as="geometry" />
        </mxCell>
        <mxCell id="wHuKZuV4ssyGS4s8Llmr-8" value="cont = a" style="whiteSpace=wrap;html=1;" vertex="1" parent="1">
          <mxGeometry x="365" y="526" width="120" height="60" as="geometry" />
        </mxCell>
        <mxCell id="wHuKZuV4ssyGS4s8Llmr-13" value="" style="edgeStyle=orthogonalEdgeStyle;rounded=0;orthogonalLoop=1;jettySize=auto;html=1;" edge="1" parent="1" source="wHuKZuV4ssyGS4s8Llmr-10" target="wHuKZuV4ssyGS4s8Llmr-12">
          <mxGeometry relative="1" as="geometry" />
        </mxCell>
        <mxCell id="wHuKZuV4ssyGS4s8Llmr-29" value="true" style="edgeLabel;html=1;align=center;verticalAlign=middle;resizable=0;points=[];" vertex="1" connectable="0" parent="wHuKZuV4ssyGS4s8Llmr-13">
          <mxGeometry x="-0.08" y="1" relative="1" as="geometry">
            <mxPoint as="offset" />
          </mxGeometry>
        </mxCell>
        <mxCell id="wHuKZuV4ssyGS4s8Llmr-19" value="" style="edgeStyle=orthogonalEdgeStyle;rounded=0;orthogonalLoop=1;jettySize=auto;html=1;" edge="1" parent="1" source="wHuKZuV4ssyGS4s8Llmr-10" target="wHuKZuV4ssyGS4s8Llmr-17">
          <mxGeometry relative="1" as="geometry" />
        </mxCell>
        <mxCell id="wHuKZuV4ssyGS4s8Llmr-30" value="false" style="edgeLabel;html=1;align=center;verticalAlign=middle;resizable=0;points=[];" vertex="1" connectable="0" parent="wHuKZuV4ssyGS4s8Llmr-19">
          <mxGeometry x="-0.1143" y="-2" relative="1" as="geometry">
            <mxPoint as="offset" />
          </mxGeometry>
        </mxCell>
        <mxCell id="wHuKZuV4ssyGS4s8Llmr-10" value="cont &amp;lt;= b" style="rhombus;whiteSpace=wrap;html=1;" vertex="1" parent="1">
          <mxGeometry x="385" y="632" width="80" height="80" as="geometry" />
        </mxCell>
        <mxCell id="wHuKZuV4ssyGS4s8Llmr-15" value="" style="edgeStyle=orthogonalEdgeStyle;rounded=0;orthogonalLoop=1;jettySize=auto;html=1;" edge="1" parent="1" source="wHuKZuV4ssyGS4s8Llmr-12" target="wHuKZuV4ssyGS4s8Llmr-14">
          <mxGeometry relative="1" as="geometry" />
        </mxCell>
        <mxCell id="wHuKZuV4ssyGS4s8Llmr-12" value="sum = sum + cont" style="whiteSpace=wrap;html=1;" vertex="1" parent="1">
          <mxGeometry x="365" y="762" width="120" height="60" as="geometry" />
        </mxCell>
        <mxCell id="wHuKZuV4ssyGS4s8Llmr-14" value="cont += 1" style="whiteSpace=wrap;html=1;" vertex="1" parent="1">
          <mxGeometry x="365" y="868" width="120" height="60" as="geometry" />
        </mxCell>
        <mxCell id="wHuKZuV4ssyGS4s8Llmr-16" style="edgeStyle=orthogonalEdgeStyle;rounded=0;orthogonalLoop=1;jettySize=auto;html=1;" edge="1" parent="1" source="wHuKZuV4ssyGS4s8Llmr-14" target="wHuKZuV4ssyGS4s8Llmr-10">
          <mxGeometry relative="1" as="geometry">
            <Array as="points">
              <mxPoint x="425" y="980" />
              <mxPoint x="320" y="980" />
              <mxPoint x="320" y="670" />
            </Array>
          </mxGeometry>
        </mxCell>
        <mxCell id="wHuKZuV4ssyGS4s8Llmr-21" value="" style="edgeStyle=orthogonalEdgeStyle;rounded=0;orthogonalLoop=1;jettySize=auto;html=1;" edge="1" parent="1" source="wHuKZuV4ssyGS4s8Llmr-17" target="wHuKZuV4ssyGS4s8Llmr-20">
          <mxGeometry relative="1" as="geometry" />
        </mxCell>
        <mxCell id="wHuKZuV4ssyGS4s8Llmr-17" value="write sum" style="shape=parallelogram;perimeter=parallelogramPerimeter;whiteSpace=wrap;html=1;fixedSize=1;" vertex="1" parent="1">
          <mxGeometry x="573" y="642" width="120" height="60" as="geometry" />
        </mxCell>
        <mxCell id="wHuKZuV4ssyGS4s8Llmr-23" value="" style="edgeStyle=orthogonalEdgeStyle;rounded=0;orthogonalLoop=1;jettySize=auto;html=1;" edge="1" parent="1" source="wHuKZuV4ssyGS4s8Llmr-20" target="wHuKZuV4ssyGS4s8Llmr-22">
          <mxGeometry relative="1" as="geometry" />
        </mxCell>
        <mxCell id="wHuKZuV4ssyGS4s8Llmr-20" value="" style="shape=waypoint;sketch=0;size=6;pointerEvents=1;points=[];fillColor=default;resizable=0;rotatable=0;perimeter=centerPerimeter;snapToPoint=1;" vertex="1" parent="1">
          <mxGeometry x="623" y="536" width="20" height="20" as="geometry" />
        </mxCell>
        <mxCell id="wHuKZuV4ssyGS4s8Llmr-22" value="end" style="ellipse;whiteSpace=wrap;html=1;sketch=0;pointerEvents=1;resizable=0;" vertex="1" parent="1">
          <mxGeometry x="693" y="506" width="80" height="80" as="geometry" />
        </mxCell>
        <mxCell id="wHuKZuV4ssyGS4s8Llmr-27" value="" style="edgeStyle=orthogonalEdgeStyle;rounded=0;orthogonalLoop=1;jettySize=auto;html=1;" edge="1" parent="1" source="wHuKZuV4ssyGS4s8Llmr-25" target="wHuKZuV4ssyGS4s8Llmr-20">
          <mxGeometry relative="1" as="geometry" />
        </mxCell>
        <mxCell id="wHuKZuV4ssyGS4s8Llmr-25" value="write &quot;Errore&quot;" style="shape=parallelogram;perimeter=parallelogramPerimeter;whiteSpace=wrap;html=1;fixedSize=1;" vertex="1" parent="1">
          <mxGeometry x="573" y="396" width="120" height="60" as="geometry" />
        </mxCell>
      </root>
    </mxGraphModel>
  </diagram>
</mxfile>
